<?xml version="1.0" standalone="no"?>
<!DOCTYPE svg PUBLIC "-//W3C//DTD SVG 20010904//EN"
 "http://www.w3.org/TR/2001/REC-SVG-20010904/DTD/svg10.dtd">
<svg version="1.0" xmlns="http://www.w3.org/2000/svg"
 width="256.000000pt" height="256.000000pt" viewBox="0 0 256.000000 256.000000"
 preserveAspectRatio="xMidYMid meet">

<g transform="translate(0.000000,256.000000) scale(0.100000,-0.100000)"
fill="#000000" stroke="none">
<path d="M930 2170 l-285 -5 -57 -28 c-74 -36 -150 -119 -178 -194 -21 -56
-21 -69 -21 -663 0 -602 0 -606 22 -666 31 -82 121 -172 203 -203 60 -22 64
-22 666 -22 602 0 606 0 666 22 82 31 172 121 203 203 22 60 22 64 22 666 0
602 0 606 -22 666 -30 80 -121 172 -199 201 -50 19 -83 21 -395 24 -187 2
-468 2 -625 -1z m329 -710 l146 -205 3 208 2 207 90 0 90 0 0 -390 0 -390 -70
0 -69 0 -148 207 -148 207 -3 -207 -2 -207 -90 0 -90 0 0 390 0 391 72 -3 72
-3 145 -205z"/>
</g>
</svg>
