<?xml version="1.0" standalone="no"?>
<!DOCTYPE svg PUBLIC "-//W3C//DTD SVG 20010904//EN"
 "http://www.w3.org/TR/2001/REC-SVG-20010904/DTD/svg10.dtd">
<svg version="1.0" xmlns="http://www.w3.org/2000/svg"
 width="627.000000pt" height="577.000000pt" viewBox="0 0 627.000000 577.000000"
 preserveAspectRatio="xMidYMid meet">

<g transform="translate(0.000000,577.000000) scale(0.100000,-0.100000)"
fill="#000000" stroke="none">
<path d="M430 2830 l0 -2780 2800 0 2800 0 0 2780 0 2780 -1083 0 -1084 0 -81
-167 c-78 -163 -297 -673 -290 -677 1 -1 32 -15 66 -31 59 -27 65 -28 75 -13
7 9 70 106 142 214 71 108 131 192 133 185 4 -13 -11 -37 -160 -260 -60 -88
-108 -162 -108 -164 0 -2 26 -21 57 -42 l57 -38 86 90 c147 156 607 586 614
575 6 -10 -105 -119 -259 -257 -60 -53 -181 -170 -267 -260 l-157 -162 52 -51
52 -51 85 59 c47 32 121 87 166 120 108 83 148 108 142 89 -2 -8 -88 -74 -191
-148 -205 -148 -195 -134 -134 -205 l34 -38 409 192 c409 193 793 370 801 370
2 0 1 -5 -3 -11 -7 -13 -144 -79 -384 -187 -85 -39 -288 -133 -450 -209 -162
-77 -310 -145 -327 -152 -18 -8 -33 -17 -33 -22 0 -5 16 -37 35 -72 l35 -64
187 44 c104 23 195 43 203 42 30 -1 -62 -28 -217 -64 -87 -20 -159 -38 -161
-40 -2 -2 7 -33 20 -70 l23 -67 638 4 c402 3 634 1 628 -5 -6 -6 -261 -12
-635 -15 -344 -3 -626 -5 -626 -6 0 -1 7 -39 15 -86 74 -423 -136 -863 -517
-1083 -68 -39 -216 -95 -295 -111 -99 -20 -223 -29 -223 -16 0 5 3 10 8 10 47
1 203 25 262 41 370 101 658 406 737 781 21 102 23 305 4 401 l-13 67 -37 0
c-20 0 -43 5 -51 10 -11 7 -1 10 34 10 34 0 47 4 44 13 -3 6 -13 36 -23 65
-16 44 -23 52 -44 53 -17 1 -20 3 -8 6 24 6 22 17 -15 84 -23 42 -39 59 -53
59 -15 0 -17 2 -6 9 10 7 5 20 -25 60 -21 28 -44 51 -52 51 -7 0 -11 4 -8 8
14 22 -172 170 -285 227 -114 58 -307 113 -348 100 -12 -4 -21 -2 -21 4 0 6
-21 11 -50 11 -27 0 -50 5 -50 10 0 6 23 10 50 10 l50 0 0 385 0 385 -305 0
c-189 0 -305 -4 -305 -10 0 -5 67 -184 149 -397 81 -213 153 -403 159 -420 13
-38 -3 -57 -17 -21 -5 13 -20 55 -34 93 -14 39 -63 169 -110 290 -46 121 -103
275 -127 343 l-43 122 -1068 0 -1069 0 0 -2780z m2524 2598 c3 -16 2 -28 -3
-28 -11 0 -21 25 -21 53 0 27 15 11 24 -25z m25 -140 c54 -272 91 -482 88
-491 -8 -21 -25 37 -42 143 -9 58 -29 168 -46 244 -33 156 -33 156 -20 156 5
0 14 -24 20 -52z m-641 -327 c188 -192 342 -352 342 -355 0 -22 -42 15 -165
143 -77 80 -226 234 -330 341 -105 107 -194 201 -199 208 -27 44 48 -28 352
-337z m96 268 c10 -17 16 -33 13 -35 -6 -6 -47 45 -47 57 0 18 16 8 34 -22z
m1530 -33 c-9 -15 -19 -24 -22 -22 -2 3 3 17 12 32 10 14 20 23 23 21 2 -3 -3
-17 -13 -31z m-1324 -264 c146 -220 159 -242 143 -242 -5 0 -32 35 -59 78 -27
42 -95 145 -151 228 -56 84 -99 155 -96 158 9 9 7 12 163 -222z m-790 -280
c333 -167 609 -307 614 -313 5 -5 8 -11 5 -13 -9 -9 -1232 610 -1238 626 -4
13 -87 53 619 -300z m211 202 c13 -16 12 -16 -18 0 -18 9 -33 21 -33 27 0 13
32 -4 51 -27z m2287 -31 c-15 -15 -31 -23 -35 -19 -9 8 32 46 50 46 7 0 -1
-12 -15 -27z m-2073 -108 c61 -44 144 -104 185 -132 74 -50 122 -93 104 -93
-13 0 -72 40 -189 130 -55 42 -133 98 -172 124 -40 27 -70 52 -67 57 7 12 8
11 139 -86z m995 -751 c179 -257 331 -474 338 -483 10 -13 12 65 10 404 -3
409 -4 421 -25 468 -16 34 -32 52 -55 62 -31 13 -21 14 122 15 154 0 155 0
120 -18 -22 -10 -43 -32 -55 -57 -19 -39 -20 -63 -23 -677 l-3 -638 -42 0 -42
0 -395 563 -395 564 -3 -476 c-1 -310 1 -494 8 -528 12 -56 40 -100 74 -113
13 -6 -34 -9 -124 -9 l-145 -1 31 19 c17 10 39 36 50 57 18 37 19 70 22 606
l3 567 -38 42 c-21 23 -56 55 -77 71 l-39 28 179 0 179 0 325 -466z m-1415
384 c7 -8 1 -9 -25 -4 -19 3 -39 11 -45 18 -7 8 -1 9 25 4 19 -3 39 -11 45
-18z m2731 -13 c-11 -8 -29 -15 -40 -15 -36 0 7 25 49 29 6 0 1 -6 -9 -14z
m-2513 -34 c84 -22 196 -49 249 -61 54 -13 96 -26 93 -30 -5 -8 -75 3 -150 24
-27 8 -102 27 -165 41 -166 38 -190 45 -190 55 0 14 -7 15 163 -29z m321 -232
c6 -6 -821 -19 -1186 -19 -109 0 -189 4 -193 10 -3 5 31 10 87 12 176 6 1286
3 1292 -3z m472 -1729 c27 0 31 -12 9 -30 -8 -7 -15 -24 -15 -37 0 -20 -4 -24
-17 -18 -10 4 -22 7 -28 7 -5 0 -18 -3 -27 -7 -15 -6 -18 -2 -18 21 0 15 -7
36 -17 46 -15 17 -15 18 10 18 17 0 31 8 38 22 l12 22 15 -22 c8 -12 25 -22
38 -22z m159 20 c4 -13 15 -20 31 -20 28 0 31 -12 8 -31 -9 -8 -14 -22 -11
-37 4 -20 2 -23 -17 -17 -29 9 -38 9 -60 0 -17 -7 -18 -5 -13 17 5 17 2 30 -8
38 -21 17 -19 30 5 30 10 0 24 9 30 20 6 11 15 20 20 20 5 0 12 -9 15 -20z
m190 0 c4 -13 15 -20 31 -20 28 0 31 -12 8 -31 -9 -7 -13 -21 -10 -34 5 -19 1
-21 -44 -21 -45 0 -49 2 -44 21 3 13 -1 27 -10 34 -23 19 -20 31 8 31 16 0 27
7 31 20 3 11 10 20 15 20 5 0 12 -9 15 -20z m195 0 c6 -11 20 -20 30 -20 24 0
26 -13 5 -30 -10 -8 -13 -21 -8 -38 5 -22 4 -24 -13 -17 -22 9 -31 9 -60 0
-19 -6 -21 -3 -17 17 3 15 -2 29 -11 37 -23 19 -20 31 8 31 16 0 27 7 31 20 3
11 10 20 15 20 5 0 14 -9 20 -20z m228 -20 c24 0 24 -1 9 -18 -10 -10 -17 -31
-17 -46 0 -23 -3 -27 -17 -21 -10 4 -22 7 -28 7 -5 0 -18 -3 -27 -7 -14 -6
-18 -2 -18 18 0 13 -7 30 -15 37 -22 18 -18 30 10 30 15 0 29 8 36 22 l12 22
15 -22 c8 -13 25 -22 40 -22z m-530 -208 c42 -28 63 -36 107 -38 47 -2 62 3
118 36 83 50 107 56 136 33 l23 -19 -26 -2 c-15 -1 -59 -19 -99 -41 -66 -35
-79 -39 -149 -39 -69 -1 -82 3 -131 32 -65 39 -115 58 -130 49 -6 -4 -7 -1 -3
6 12 19 48 30 76 24 14 -3 49 -21 78 -41z m96 -6 c-22 -17 -32 -3 -13 20 8 10
15 12 23 4 7 -7 4 -14 -10 -24z m54 4 c3 -21 2 -22 -12 -11 -19 16 -21 44 -3
39 6 -3 14 -15 15 -28z m-351 7 c17 -18 -22 -22 -195 -22 -552 0 -1095 6
-1089 12 7 6 1050 23 1200 18 42 -1 80 -5 84 -8z m1783 -5 c113 -6 -13 -9
-471 -14 -345 -4 -636 -4 -648 -1 -28 7 -27 21 2 25 38 5 953 -3 1117 -10z
m-1745 -12 c-3 -5 -1 -10 4 -10 6 0 11 -7 11 -15 0 -8 -7 -15 -15 -15 -15 0
-21 31 -8 43 10 10 15 8 8 -3z m567 -32 c-18 -18 -33 0 -20 22 11 17 14 18 21
4 6 -10 5 -20 -1 -26z m-2041 -155 c41 -43 90 -102 109 -132 l35 -54 3 104 c3
119 -1 146 -26 152 -9 3 8 5 38 5 30 0 48 -2 40 -5 -8 -3 -18 -11 -22 -17 -4
-6 -8 -98 -8 -203 0 -160 -2 -193 -14 -193 -8 0 -21 21 -31 50 -22 66 -98 180
-173 260 l-61 65 -1 -172 c0 -143 3 -174 16 -187 14 -15 11 -16 -30 -16 l-46
0 20 20 c18 18 20 33 20 190 0 157 -2 172 -20 190 l-20 20 49 0 c47 0 50 -2
122 -77z m618 40 c16 -57 14 -60 -21 -26 -43 41 -76 53 -149 53 l-59 0 0 -101
c0 -91 1 -99 16 -85 18 19 68 21 113 5 24 -8 35 -8 46 1 30 25 27 0 -4 -30
-27 -28 -35 -31 -64 -24 -17 5 -48 8 -67 9 l-35 0 -3 -87 -3 -88 53 0 c81 0
128 17 171 62 42 44 44 41 21 -25 l-16 -47 -166 0 c-118 1 -162 4 -149 11 15
9 17 30 17 199 0 169 -2 190 -17 199 -13 7 29 10 144 11 l162 0 10 -37z m229
30 c-10 -2 -18 -8 -18 -11 0 -14 125 -362 130 -362 9 0 110 304 110 333 0 19
-7 30 -22 37 -18 7 -10 9 36 9 56 1 58 0 38 -16 -10 -10 -41 -80 -67 -158 -90
-264 -82 -247 -122 -243 l-36 3 -68 195 c-38 107 -76 201 -86 207 -14 11 -5
13 53 12 38 -1 61 -3 52 -6z m701 -24 c18 -53 14 -65 -14 -35 -35 38 -85 56
-155 56 l-60 0 0 -102 c0 -97 1 -100 18 -85 22 20 65 22 111 6 24 -9 35 -9 44
0 19 19 27 12 16 -13 -17 -37 -51 -48 -108 -34 -76 17 -81 12 -81 -87 l0 -85
63 0 c76 0 133 25 170 71 31 39 33 31 11 -34 l-16 -47 -166 0 c-146 0 -163 2
-146 14 18 13 19 28 19 196 0 168 -1 183 -19 196 -17 12 0 14 141 14 l161 0
11 -31z m427 8 c51 -44 31 -107 -45 -147 -32 -16 -33 -18 -14 -24 14 -5 28
-24 38 -54 44 -124 51 -137 74 -140 32 -5 7 -32 -30 -32 -41 0 -63 30 -93 125
-28 86 -41 101 -79 85 -51 -22 -57 -33 -57 -113 0 -62 3 -78 18 -86 12 -8 -3
-10 -58 -10 -41 1 -68 3 -59 6 25 6 29 33 29 211 0 149 -2 164 -20 182 l-20
20 144 0 c137 0 146 -1 172 -23z m274 3 c-19 -19 -20 -33 -20 -205 l0 -185 58
0 c69 0 128 25 164 69 15 17 29 31 32 31 3 0 -3 -24 -13 -52 l-18 -53 -164 -2
c-117 -2 -159 0 -146 8 15 9 17 30 17 199 0 169 -2 190 -17 199 -14 8 0 10 55
11 l72 0 -20 -20z m610 -132 c84 -243 90 -256 108 -261 9 -3 -14 -5 -53 -6
-45 0 -65 2 -56 8 13 8 12 18 -4 70 -17 58 -19 60 -36 45 -20 -18 -47 -20
-120 -9 -45 7 -46 7 -58 -25 -13 -39 -5 -77 17 -83 10 -3 -7 -5 -37 -6 -46 -1
-52 1 -38 12 9 6 43 89 76 182 85 245 75 225 115 225 l34 0 52 -152z m370 75
c39 -43 89 -105 111 -138 l40 -60 -3 123 c-3 109 -5 125 -22 138 -18 13 -15
14 30 14 38 -1 45 -3 32 -11 -16 -9 -18 -30 -18 -210 0 -176 -2 -200 -16 -197
-8 2 -26 29 -39 62 -13 32 -39 81 -58 110 -42 63 -157 196 -169 196 -6 0 -8
-69 -6 -171 3 -155 5 -172 22 -185 18 -13 15 -14 -30 -14 -38 1 -45 3 -31 11
15 9 17 30 17 199 0 169 -2 190 -17 199 -14 8 -6 10 34 11 l51 0 72 -77z m560
55 c64 -33 85 -80 85 -188 -1 -90 -13 -126 -57 -167 -38 -35 -73 -43 -196 -42
-64 0 -110 3 -102 6 8 3 18 11 22 17 4 6 8 90 8 186 0 96 -4 180 -8 186 -4 6
-14 14 -22 17 -8 3 39 6 105 6 106 1 126 -2 165 -21z m-1970 -570 c0 -5 4 -7
9 -4 14 9 42 -5 34 -17 -4 -6 -1 -7 6 -3 7 5 29 -4 51 -19 28 -20 48 -26 70
-23 39 6 41 -18 3 -33 -36 -14 -62 -6 -134 41 -54 35 -66 39 -113 36 -42 -2
-65 -11 -111 -42 -74 -49 -117 -51 -151 -8 -24 29 -32 64 -15 64 15 0 22 -18
11 -25 -18 -11 9 -35 39 -35 14 0 43 11 64 25 20 14 42 23 49 19 6 -4 8 -3 4
4 -3 6 6 14 21 20 36 12 163 12 163 0z m224 -17 c4 -5 3 -16 0 -25 -6 -15 -8
-15 -19 1 -13 18 -11 33 5 33 5 0 11 -4 14 -9z m-608 -33 c4 -5 4 -11 0 -15
-9 -10 -941 -5 -1121 5 -101 5 -27 8 325 12 587 8 787 7 796 -2z m1527 2 c204
0 367 -3 363 -7 -7 -8 -1200 -23 -1228 -15 -23 6 -23 19 0 26 9 3 125 3 256 1
132 -3 406 -5 609 -5z m-1224 -9 c7 -5 10 -14 6 -20 -5 -9 -10 -9 -21 0 -26
22 -14 38 15 20z m51 -5 c0 -8 -4 -17 -9 -21 -12 -7 -24 12 -16 25 9 15 25 12
25 -4z m-462 -187 c-10 -5 -18 -19 -18 -29 0 -16 7 -20 35 -20 30 0 35 3 35
24 0 13 -6 27 -12 29 -7 3 5 5 27 5 22 0 34 -2 28 -5 -8 -3 -13 -25 -13 -58 0
-33 5 -55 13 -58 6 -3 -6 -5 -28 -5 -22 0 -34 2 -27 5 6 2 12 16 12 29 0 21
-5 24 -35 24 -28 0 -35 -4 -35 -20 0 -10 8 -24 18 -29 14 -8 9 -10 -23 -11
-30 0 -36 3 -27 12 16 16 16 90 0 106 -9 9 -3 12 28 12 31 -1 36 -3 22 -11z
m282 -9 c42 -42 8 -110 -54 -110 -37 0 -49 7 -65 37 -15 30 -14 36 10 67 26
33 79 36 109 6z m205 9 c10 -16 -4 -24 -17 -11 -7 7 -18 12 -25 12 -18 0 -18
-106 0 -113 6 -3 -6 -5 -28 -5 -22 0 -34 2 -27 5 18 7 16 113 -3 113 -7 0 -19
-8 -24 -17 -9 -16 -10 -16 -11 5 0 21 4 22 64 22 36 0 68 -5 71 -11z m165 -6
c0 -13 -3 -14 -12 -5 -7 7 -22 12 -35 12 -18 0 -23 -6 -23 -25 0 -18 5 -25 20
-25 11 0 20 5 20 10 0 6 5 10 10 10 6 0 10 -9 10 -20 0 -16 -5 -19 -31 -13
-28 5 -30 4 -27 -18 4 -30 33 -36 59 -13 18 16 19 16 19 -4 0 -20 -5 -22 -67
-21 -38 0 -62 3 -55 6 7 3 12 25 12 58 0 33 -5 55 -12 58 -7 3 15 6 50 6 52 1
62 -2 62 -16z m122 8 c-9 -5 -12 -24 -10 -57 3 -55 25 -69 59 -38 18 16 19 16
19 -4 0 -20 -5 -22 -67 -21 -38 0 -62 3 -55 6 7 3 12 25 12 58 0 33 -5 55 -12
58 -7 3 5 6 27 6 25 0 35 -2 27 -8z m-526 -256 c4 -8 -1 -26 -10 -40 -17 -26
-9 -34 12 -13 9 9 12 8 12 -5 0 -13 -9 -17 -42 -17 l-41 0 21 23 c29 31 30 61
1 52 -15 -5 -19 -4 -15 4 10 16 56 13 62 -4z m165 -6 c19 -36 -3 -69 -46 -69
-28 0 -38 5 -46 24 -17 37 3 66 46 66 25 0 37 -6 46 -21z m125 7 c3 -8 -2 -26
-11 -40 -11 -16 -13 -26 -6 -26 6 0 11 5 11 10 0 6 4 10 10 10 5 0 7 -7 4 -15
-4 -9 -19 -15 -41 -15 l-34 0 20 26 c27 35 28 58 1 51 -11 -3 -20 -1 -20 4 0
15 60 10 66 -5z m112 7 c-34 -5 -36 -15 -6 -28 27 -12 35 -40 18 -60 -14 -17
-56 -20 -66 -4 -4 7 2 9 17 7 31 -4 40 37 11 46 -34 11 -16 46 22 45 30 -2 30
-2 4 -6z"/>
<path d="M3240 1896 c0 -83 3 -106 13 -100 80 48 139 89 147 104 30 56 -4 90
-95 97 l-65 6 0 -107z"/>
<path d="M4180 1873 c-18 -54 -35 -103 -37 -109 -3 -7 5 -10 22 -7 14 3 45 0
69 -7 25 -7 49 -9 55 -6 10 6 -51 199 -69 219 -3 4 -22 -36 -40 -90z"/>
<path d="M5090 1799 l0 -201 55 4 c99 8 141 78 133 220 -7 125 -51 178 -147
178 l-41 0 0 -201z"/>
<path d="M2996 1154 c-22 -21 -20 -50 4 -74 24 -24 34 -25 54 -4 22 21 20 50
-4 74 -24 24 -34 25 -54 4z"/>
<path d="M3153 913 c-15 -5 -17 -49 -4 -57 19 -12 42 7 39 32 -3 26 -14 34
-35 25z"/>
<path d="M3225 5391 c-4 -121 -4 -296 0 -389 l7 -170 46 -7 c24 -4 51 -9 58
-12 9 -3 14 2 14 16 0 12 18 110 39 219 22 108 42 214 45 234 6 35 26 63 26
37 0 -10 -82 -428 -95 -486 -4 -18 2 -24 46 -38 28 -10 54 -13 58 -9 4 5 52
117 107 249 54 132 136 315 181 408 l82 167 -303 0 -303 0 -8 -219z m255 37
c0 -13 -5 -30 -10 -38 -7 -11 -10 -5 -10 23 0 20 5 37 10 37 6 0 10 -10 10
-22z"/>
</g>
</svg>
