<?xml version="1.0" standalone="no"?>
<!DOCTYPE svg PUBLIC "-//W3C//DTD SVG 20010904//EN"
 "http://www.w3.org/TR/2001/REC-SVG-20010904/DTD/svg10.dtd">
<svg version="1.0" xmlns="http://www.w3.org/2000/svg"
 width="32.000000pt" height="32.000000pt" viewBox="0 0 32.000000 32.000000"
 preserveAspectRatio="xMidYMid meet">

<g transform="translate(0.000000,32.000000) scale(0.100000,-0.100000)"
fill="#000000" stroke="none">
<path d="M62 258 c-16 -16 -16 -180 0 -196 16 -16 180 -16 196 0 16 16 16 180
0 196 -16 16 -180 16 -196 0z m92 -70 l16 -22 0 22 c0 13 6 22 15 22 11 0 15
-12 15 -50 0 -54 -10 -62 -34 -28 l-16 22 0 -22 c0 -13 -6 -22 -15 -22 -11 0
-15 12 -15 50 0 54 10 62 34 28z"/>
</g>
</svg>
