<?xml version="1.0" standalone="no"?>
<!DOCTYPE svg PUBLIC "-//W3C//DTD SVG 20010904//EN"
 "http://www.w3.org/TR/2001/REC-SVG-20010904/DTD/svg10.dtd">
<svg version="1.0" xmlns="http://www.w3.org/2000/svg"
 width="32.000000pt" height="32.000000pt" viewBox="0 0 32.000000 32.000000"
 preserveAspectRatio="xMidYMid meet">

<g transform="translate(0.000000,32.000000) scale(0.100000,-0.100000)"
fill="#000000" stroke="none">
<path d="M42 312 c-9 -7 -12 -45 -10 -158 3 -136 5 -149 22 -152 10 -2 22 0
28 6 6 6 0 8 -17 5 l-26 -5 3 148 3 149 35 0 c32 0 37 -4 65 -57 17 -31 34
-60 39 -65 14 -13 -45 100 -62 120 -16 18 -58 23 -80 9z"/>
<path d="M236 312 c-3 -5 6 -7 20 -4 l25 4 -3 -148 -3 -149 -25 -3 c-17 -3
-31 4 -48 25 l-23 28 12 -27 c14 -31 39 -43 75 -34 l25 7 -3 152 c-3 147 -4
152 -25 155 -11 2 -24 -1 -27 -6z"/>
<path d="M80 243 c1 -11 50 -90 50 -80 0 11 -39 87 -45 87 -3 0 -5 -3 -5 -7z"/>
<path d="M208 133 c9 -24 20 -43 24 -43 10 0 -2 33 -22 60 -20 25 -20 25 -2
-17z"/>
<path d="M150 114 c0 -6 7 -19 16 -30 14 -18 14 -18 3 6 -14 31 -19 36 -19 24z"/>
</g>
</svg>
