<?xml version="1.0" standalone="no"?>
<!DOCTYPE svg PUBLIC "-//W3C//DTD SVG 20010904//EN"
 "http://www.w3.org/TR/2001/REC-SVG-20010904/DTD/svg10.dtd">
<svg version="1.0" xmlns="http://www.w3.org/2000/svg"
 width="32.000000pt" height="32.000000pt" viewBox="0 0 32.000000 32.000000"
 preserveAspectRatio="xMidYMid meet">

<g transform="translate(0.000000,32.000000) scale(0.100000,-0.100000)"
fill="#000000" stroke="none">
<path d="M20 160 l0 -160 35 0 35 0 0 102 0 102 46 -62 c25 -34 48 -62 50 -62
2 0 4 22 4 49 0 44 -5 56 -56 120 -46 59 -60 71 -85 71 l-29 0 0 -160z"/>
<path d="M230 176 c0 -79 3 -151 6 -160 4 -10 18 -16 35 -16 l29 0 0 160 0
160 -35 0 -35 0 0 -144z"/>
<path d="M213 90 c0 -30 2 -43 4 -28 2 16 2 40 0 55 -2 16 -4 3 -4 -27z"/>
</g>
</svg>
